<svg width="18" height="18" viewBox="0 0 18 18" fill="none" xmlns="http://www.w3.org/2000/svg">
<path d="M16.847 7.33991L9.97196 0.46491C9.71412 0.207242 9.36452 0.0625 9.00001 0.0625C8.63549 0.0625 8.28589 0.207242 8.02806 0.46491L1.15306 7.33991C1.02475 7.46726 0.923051 7.61884 0.853859 7.78585C0.784666 7.95286 0.749365 8.13195 0.750009 8.31272V16.5627C0.750009 16.7451 0.822442 16.9199 0.951373 17.0489C1.0803 17.1778 1.25517 17.2502 1.43751 17.2502H16.5625C16.7448 17.2502 16.9197 17.1778 17.0486 17.0489C17.1776 16.9199 17.25 16.7451 17.25 16.5627V8.31272C17.2507 8.13195 17.2154 7.95286 17.1462 7.78585C17.077 7.61884 16.9753 7.46726 16.847 7.33991ZM15.875 15.8752H2.12501V8.31272L9.00001 1.43772L15.875 8.31272V15.8752Z" fill="#A02FEC"/>
</svg>
