<svg width="20" height="20" viewBox="0 0 20 20" fill="none" xmlns="http://www.w3.org/2000/svg">
<path d="M10 0.25C8.07164 0.25 6.18657 0.821828 4.58319 1.89317C2.97982 2.96451 1.73013 4.48726 0.992179 6.26884C0.254225 8.05042 0.061142 10.0108 0.437348 11.9021C0.813554 13.7934 1.74215 15.5307 3.10571 16.8943C4.46928 18.2579 6.20656 19.1865 8.09787 19.5627C9.98919 19.9389 11.9496 19.7458 13.7312 19.0078C15.5127 18.2699 17.0355 17.0202 18.1068 15.4168C19.1782 13.8134 19.75 11.9284 19.75 10C19.7473 7.41498 18.7192 4.93661 16.8913 3.10872C15.0634 1.28084 12.585 0.25273 10 0.25ZM18.25 10C18.2519 11.9289 17.5745 13.7969 16.3366 15.2762L4.72375 3.6625C5.92844 2.66029 7.39365 2.02191 8.94792 1.82207C10.5022 1.62223 12.0812 1.86919 13.5003 2.53406C14.9193 3.19892 16.1196 4.25418 16.9608 5.57636C17.8019 6.89854 18.2491 8.43294 18.25 10ZM1.75 10C1.74808 8.07106 2.42552 6.20306 3.66344 4.72375L15.2763 16.3375C14.0716 17.3397 12.6064 17.9781 11.0521 18.1779C9.49782 18.3778 7.91878 18.1308 6.49975 17.4659C5.08072 16.8011 3.8804 15.7458 3.03924 14.4236C2.19809 13.1015 1.7509 11.5671 1.75 10Z" fill="#A02FEC"/>
</svg>
