<svg width="81" height="68" viewBox="0 0 81 68" fill="none" xmlns="http://www.w3.org/2000/svg">
<path d="M10.0293 44.0342V45.9088L32.8547 66.9832L79.9269 50.853V49.0195L10.0293 44.0342Z" fill="#0A121A"/>
<path d="M32.8544 67.127C32.8132 67.127 32.7926 67.1064 32.7514 67.0858L9.92597 46.0114C9.90537 45.9908 9.88477 45.9496 9.88477 45.9084V44.0544C9.88477 44.0132 9.90537 43.972 9.92597 43.9514C9.94657 43.9308 9.98777 43.9102 10.029 43.9102L79.9266 48.8955C80.009 48.8955 80.0708 48.9573 80.0502 49.0397V50.8731C80.0502 50.9349 80.009 50.9967 79.9472 51.0173L32.8956 67.127C32.8956 67.127 32.875 67.127 32.8544 67.127ZM10.1526 45.8466L32.8956 66.818L79.7824 50.7701V49.1427L10.1732 44.1986V45.8466H10.1526Z" fill="#0A121A"/>
<path d="M10.0296 44.0343L0.203125 10.3524L48.6144 0.402344L55.5156 30.0465L10.0296 44.0343Z" fill="white"/>
<path d="M10.0289 44.1783C10.0083 44.1783 9.9877 44.1783 9.9671 44.1577C9.9259 44.1371 9.9053 44.1165 9.9053 44.0753L0.0788456 10.3934C0.058245 10.3522 0.0788453 10.311 0.0994458 10.2698C0.120046 10.2286 0.161247 10.208 0.202449 10.208L48.6137 0.257947C48.6961 0.237347 48.7579 0.299148 48.7785 0.36095L55.6797 30.0051C55.7003 30.0875 55.6591 30.1493 55.5767 30.1699L10.0701 44.1577L10.0289 44.1783ZM0.387854 10.4552L10.1113 43.8487L55.3501 29.9433L48.5107 0.566955L0.387854 10.4552Z" fill="#0A121A"/>
<path d="M55.5153 30.0459L10.0293 44.0337L32.8959 64.5724L79.9269 49.019L55.5153 30.0459Z" fill="white"/>
<path d="M32.8949 64.717C32.8537 64.717 32.8331 64.6964 32.7919 64.6758L9.92526 44.1371C9.88406 44.0959 9.86346 44.0547 9.88406 43.9929C9.90466 43.9517 9.92526 43.9105 9.98706 43.8899L55.4731 29.9021C55.5143 29.8815 55.5761 29.9021 55.5967 29.9227L80.0083 48.8958C80.0495 48.937 80.0701 48.9782 80.0701 49.04C80.0495 49.1018 80.0289 49.143 79.9671 49.143L32.9361 64.6964C32.9155 64.717 32.9155 64.717 32.8949 64.717ZM10.2961 44.0959L32.9155 64.408L79.6169 48.9576L55.4937 30.1905L10.2961 44.0959Z" fill="#0A121A"/>
<path d="M54.7719 32.6836L15.4043 45.5177L25.8694 54.7262L66.37 41.274L54.7719 32.6836Z" fill="white"/>
<path d="M25.8703 54.8697C25.8291 54.8697 25.8085 54.8491 25.7673 54.8285L15.3022 45.6201C15.2404 45.5583 15.2404 45.4759 15.2816 45.414C15.3022 45.3934 15.3228 45.3729 15.3434 45.3729L54.7111 32.5593C54.7523 32.5387 54.7935 32.5593 54.8347 32.5799L66.4534 41.1703C66.4946 41.2115 66.5152 41.2527 66.5152 41.3145C66.5152 41.3763 66.474 41.4175 66.4122 41.4175L25.9115 54.8697C25.9115 54.8491 25.8909 54.8491 25.8703 54.8697ZM15.6937 45.5583L25.9115 54.5401L66.062 41.2115L54.7317 32.8477L15.6937 45.5583Z" fill="#D1D3D4"/>
<path d="M57.5127 46.4033L42.3301 51.1002L49.1901 56.4564L64.146 51.4299L57.5127 46.4033Z" fill="white"/>
<path d="M49.1908 56.6009C49.1496 56.6009 49.129 56.5803 49.1084 56.5803L42.2278 51.2241C42.1866 51.1829 42.166 51.1417 42.166 51.0799C42.166 51.0181 42.2072 50.9769 42.269 50.9769L57.4722 46.28C57.5134 46.2594 57.5546 46.28 57.5958 46.3006L64.2086 51.3271C64.2498 51.3684 64.2704 51.4095 64.2704 51.4713C64.2704 51.5332 64.2292 51.5744 64.1674 51.5744L49.232 56.6009C49.232 56.6009 49.2114 56.6009 49.1908 56.6009ZM42.6398 51.1623L49.232 56.3125L63.8378 51.3889L57.4928 46.5684L42.6398 51.1623Z" fill="#D1D3D4"/>
<path d="M11.429 41.274L2.69434 12.186L46.8825 2.75098L53.2275 29.0167L11.429 41.274Z" fill="white"/>
<path d="M11.4284 41.418C11.3666 41.418 11.3048 41.3768 11.2842 41.315L2.54955 12.227C2.52895 12.1858 2.54955 12.1446 2.57015 12.1034C2.59075 12.0622 2.63195 12.0416 2.67315 12.0416L46.8613 2.60658C46.9437 2.58598 47.0055 2.64778 47.0261 2.70958L53.3711 28.9753C53.3917 29.0577 53.3505 29.1195 53.2681 29.1401L11.4696 41.3974C11.449 41.418 11.449 41.418 11.4284 41.418ZM2.87916 12.2888L11.5314 41.0884L53.0621 28.9135L46.7789 2.91559L2.87916 12.2888Z" fill="#0A121A"/>
<path d="M3.55924 15.2346C3.47684 15.2346 3.41504 15.1728 3.41504 15.0904C3.41504 15.0286 3.45624 14.9668 3.51804 14.9462L47.5002 5.30516C47.5826 5.28456 47.665 5.32576 47.6856 5.38757C47.7062 5.46997 47.665 5.55237 47.6032 5.57297H47.5826L3.60044 15.2346H3.55924Z" fill="#0A121A"/>
<path d="M5.61881 13.6487C5.93737 13.6487 6.19562 13.3905 6.19562 13.0719C6.19562 12.7534 5.93737 12.4951 5.61881 12.4951C5.30024 12.4951 5.04199 12.7534 5.04199 13.0719C5.04199 13.3905 5.30024 13.6487 5.61881 13.6487Z" fill="#EACAFF"/>
<path d="M7.69986 13.1126C8.01843 13.1126 8.27668 12.8544 8.27668 12.5358C8.27668 12.2172 8.01843 11.959 7.69986 11.959C7.3813 11.959 7.12305 12.2172 7.12305 12.5358C7.12305 12.8544 7.3813 13.1126 7.69986 13.1126Z" fill="#D1D3D4"/>
<path d="M9.69791 12.6595C10.0165 12.6595 10.2747 12.4012 10.2747 12.0827C10.2747 11.7641 10.0165 11.5059 9.69791 11.5059C9.37934 11.5059 9.12109 11.7641 9.12109 12.0827C9.12109 12.4012 9.37934 12.6595 9.69791 12.6595Z" fill="#D1D3D4"/>
<path d="M14.0255 17.1914L40.971 10.8671C41.5684 10.7229 42.1453 11.0937 42.2895 11.6911L42.4955 12.5563C42.6397 13.1537 42.2689 13.7305 41.6714 13.8747L14.7259 20.1991C14.1285 20.3433 13.5517 19.9725 13.4075 19.3751L13.2015 18.5099C13.0779 17.933 13.4487 17.3356 14.0255 17.1914Z" fill="#D1D3D4"/>
<path d="M46.2232 26.0699C46.2232 26.0699 33.8629 30.9317 22.203 28.0476C10.5431 25.1635 3.58008 15.0898 3.58008 15.0898L9.82204 35.917C9.82204 35.917 14.2512 38.6569 25.19 38.5127C39.1572 38.3479 48.5717 31.3849 48.5717 31.3849L45.3786 25.9257" fill="white"/>
<path d="M24.47 38.678C14.1286 38.678 9.80246 36.0824 9.76126 36.0412C9.74066 36.0205 9.69945 36 9.69945 35.9587L3.43689 15.1316C3.41629 15.0492 3.45749 14.9668 3.53989 14.9462C3.60169 14.9256 3.6635 14.9462 3.7047 15.008C3.7665 15.111 10.7707 25.0611 22.2452 27.9039C32.0716 30.3348 42.4955 27.2035 45.4002 26.2147L45.2766 26.0087C45.2354 25.9469 45.256 25.8439 45.3178 25.8027C45.3796 25.7615 45.4826 25.7821 45.5238 25.8439L45.668 26.0911C45.9976 25.9675 46.1624 25.9057 46.183 25.9057C46.2654 25.8851 46.3478 25.9057 46.3684 25.9881C46.389 26.0705 46.3684 26.1529 46.286 26.1735C46.2654 26.1735 46.1006 26.2353 45.8122 26.3383L48.6963 31.303C48.7375 31.3648 48.7169 31.4472 48.6551 31.4884C48.5521 31.5502 39.0346 38.472 25.1911 38.6368L24.47 38.678ZM9.94666 35.8351C10.4411 36.1236 14.9938 38.5132 25.1911 38.3896C38.1694 38.2454 47.316 32.1271 48.3873 31.3648L45.5238 26.4825C42.6603 27.4713 32.1128 30.6438 22.1628 28.1923C12.2951 25.7615 5.72355 18.1187 3.9519 15.832L9.94666 35.8351Z" fill="#0A121A"/>
<path d="M28.7342 33.4657C24.2844 33.4657 19.1755 32.724 14.5198 30.2726C14.458 30.2314 14.4168 30.149 14.458 30.0872C14.4992 30.0254 14.5816 29.9842 14.664 30.0254C25.9531 35.9995 40.0851 31.6734 40.2293 31.6322C40.3117 31.6116 40.3941 31.6528 40.4147 31.7352C40.4353 31.8176 40.3941 31.9 40.3117 31.9206C36.5418 32.93 32.6483 33.4657 28.7342 33.4657Z" fill="#D1D3D4"/>
<path d="M26.2424 36.2052C16.9516 36.2052 10.895 31.8997 10.8126 31.8585C10.7508 31.8173 10.7302 31.7143 10.7714 31.6525C10.8126 31.5907 10.9156 31.5701 10.9774 31.6113C11.0598 31.6731 19.4237 37.5854 31.5368 35.443C31.6192 35.4224 31.681 35.4842 31.7016 35.546C31.7222 35.6284 31.6604 35.6902 31.578 35.7108C29.8269 36.0404 28.0347 36.2052 26.2424 36.2052Z" fill="#D1D3D4"/>
<path d="M17.0333 29.0363C17.0127 29.0363 16.9921 29.0363 16.9715 29.0157C7.88662 24.8956 5.68236 19.8278 5.64116 19.766C5.59996 19.6836 5.64116 19.6012 5.72357 19.5806C5.80597 19.5394 5.88837 19.5806 5.90897 19.663C5.90897 19.6836 6.44458 20.9197 8.09263 22.6707C9.59647 24.2775 12.3981 26.6466 17.0745 28.7685C17.1569 28.8097 17.1775 28.8921 17.1569 28.9539C17.1363 28.9951 17.0951 29.0363 17.0333 29.0363Z" fill="#D1D3D4"/>
<path d="M33.2653 30.6645C33.1829 30.6645 33.1211 30.6027 33.1211 30.5203C33.1211 30.4379 33.1829 30.3761 33.2653 30.3761C33.3065 30.3761 38.3124 30.3555 40.5991 29.2637C40.6815 29.2225 40.7639 29.2637 40.7845 29.3255C40.8051 29.3873 40.7845 29.4903 40.7227 29.5109C38.3948 30.6645 33.4713 30.6645 33.2653 30.6645Z" fill="#D1D3D4"/>
<path d="M43.1338 26.8329L46.9861 32.807L50.344 31.674L45.5441 24.2578L43.1338 26.8329Z" fill="white"/>
<path d="M46.9858 32.9509C46.9446 32.9509 46.8828 32.9303 46.8622 32.8891L42.9893 26.915C42.9481 26.8532 42.9687 26.7914 43.0099 26.7295L45.4201 24.1545C45.4407 24.1133 45.5025 24.1133 45.5437 24.1133C45.5849 24.1133 45.6261 24.1339 45.6467 24.1751L50.426 31.5913C50.4672 31.6531 50.4466 31.7561 50.3642 31.7973H50.3436L47.0064 32.9303C47.027 32.9509 47.0064 32.9509 46.9858 32.9509ZM43.3189 26.8532L47.0476 32.6419L50.0964 31.6119L45.5025 24.5047L43.3189 26.8532Z" fill="#0A121A"/>
<path d="M61.241 28.8721C61.241 28.8721 61.3028 33.2806 58.7484 36.4737C56.1939 39.6668 48.2627 41.253 48.2627 41.253L50.7554 31.5501L61.241 28.8721Z" fill="#EACAFF"/>
<path d="M48.2633 41.4174C48.2221 41.4174 48.1809 41.3968 48.1603 41.3762C48.1191 41.335 48.1191 41.2938 48.1191 41.232L50.6118 31.5291C50.6324 31.4879 50.6736 31.4467 50.7148 31.4261L61.2005 28.748C61.2417 28.748 61.2829 28.748 61.3241 28.7686C61.3653 28.7892 61.3859 28.8304 61.3859 28.8923C61.3859 28.9335 61.4271 33.3832 58.852 36.5763C56.277 39.7693 48.6136 41.3556 48.2839 41.4174H48.2633ZM50.8796 31.6939L48.4488 41.0878C49.7672 40.7994 56.3594 39.2131 58.6254 36.3908C60.8297 33.6304 61.0769 29.9223 61.0975 29.0777L50.8796 31.6939Z" fill="#0A121A"/>
<path d="M52.4869 15.3168C52.4869 15.3168 48.511 13.4421 44.5351 14.4721C40.5592 15.5022 35.8623 22.0531 35.8623 22.0531L45.73 23.763L52.4869 15.3168Z" fill="#EACAFF"/>
<path d="M45.7287 23.9076H45.7081L35.8404 22.1978C35.758 22.1772 35.7168 22.1154 35.7168 22.033C35.7168 22.0124 35.7374 21.9918 35.7374 21.9712C35.9228 21.7034 40.5167 15.3584 44.4926 14.3284C48.4685 13.2984 52.5062 15.173 52.5474 15.1936C52.5886 15.2142 52.6092 15.2554 52.6298 15.2966C52.6504 15.3378 52.6298 15.379 52.6092 15.4202L45.8317 23.8664C45.8111 23.9076 45.7699 23.9282 45.7287 23.9076ZM36.1082 21.9506L45.6669 23.5986L52.259 15.379C51.4556 15.0494 47.9947 13.731 44.575 14.6168C41.0729 15.5026 36.9116 20.8588 36.1082 21.9506Z" fill="#0A121A"/>
<path d="M43.5469 23.5363C46.2661 19.5604 51.0455 15.09 57.0608 11.2171C66.1869 5.32538 74.1799 7.30303 76.8786 8.25066C77.476 8.45666 77.8674 9.05408 77.8056 9.6927C77.5584 12.5562 76.0545 20.6522 66.9491 26.5439C60.9337 30.4374 54.8978 32.9301 50.1596 33.7747C50.1596 33.7747 48.3674 32.7241 46.0601 29.1602C43.7529 25.5963 43.5469 23.5363 43.5469 23.5363Z" fill="#EACAFF"/>
<path d="M50.1584 33.9396C50.1378 33.9396 50.1172 33.9396 50.076 33.919C49.9936 33.8778 48.2426 32.8066 45.9353 29.2633C43.6281 25.72 43.4015 23.6599 43.3809 23.5775C43.3809 23.5363 43.3809 23.5157 43.4015 23.4745C46.2237 19.3544 51.1679 14.8429 56.9566 11.1142C66.0209 5.26364 73.9315 7.07649 76.8979 8.14772C77.5572 8.37432 77.9898 9.03354 77.928 9.75456C77.6602 12.9064 76.0739 20.8582 67.0097 26.7088C61.2209 30.4375 55.082 33.095 50.1584 33.9808V33.9396ZM43.6899 23.5775C43.7517 23.9071 44.1225 25.9054 46.1825 29.0985C48.2426 32.2915 49.8906 33.4658 50.179 33.6512C55.0614 32.7654 61.1385 30.1491 66.8655 26.441C75.8267 20.6522 77.3923 12.8034 77.6602 9.71336C77.7014 9.13654 77.3717 8.60093 76.8155 8.41552C73.8697 7.3855 66.0826 5.57265 57.1214 11.3614C51.4151 15.0489 46.5121 19.4986 43.6899 23.5775Z" fill="#0A121A"/>
<path d="M77.8054 9.71355C77.4552 13.2568 76.1985 16.6559 74.1797 19.6018L66.3721 7.48869C69.8742 6.85007 73.4999 7.11788 76.8783 8.25091C77.4758 8.47751 77.8672 9.07493 77.8054 9.71355Z" fill="white"/>
<path d="M74.1997 19.7459C74.1585 19.7459 74.0967 19.7253 74.0761 19.6841L66.2479 7.57094C66.2273 7.52974 66.2273 7.48854 66.2479 7.42674C66.2685 7.38554 66.3097 7.34434 66.3509 7.34434C71.2538 6.49972 75.0855 7.46794 76.9396 8.12716C77.5988 8.35377 78.0314 9.01298 77.9696 9.734C77.8048 11.6911 77.1044 15.5846 74.3233 19.7047C74.2821 19.7253 74.2409 19.7459 74.1997 19.7459ZM66.6187 7.59155L74.1997 19.3339C76.8572 15.3373 77.5164 11.5881 77.6812 9.6928C77.7224 9.11599 77.3928 8.58037 76.8365 8.39497C75.0443 7.75635 71.3568 6.80873 66.6187 7.59155Z" fill="#0A121A"/>
<path d="M63.3014 23.1858C66.3733 23.1858 68.8635 20.6956 68.8635 17.6237C68.8635 14.5518 66.3733 12.0615 63.3014 12.0615C60.2295 12.0615 57.7393 14.5518 57.7393 17.6237C57.7393 20.6956 60.2295 23.1858 63.3014 23.1858Z" fill="white"/>
<path d="M63.3216 23.3307C60.1697 23.3307 57.6152 20.7762 57.6152 17.6243C57.6152 14.4724 60.1697 11.918 63.3216 11.918C66.4735 11.918 69.0279 14.4724 69.0279 17.6243C69.0279 19.5608 68.0391 21.3736 66.4117 22.4242C65.4846 23.0011 64.4134 23.3307 63.3216 23.3307ZM63.301 12.2064C60.2933 12.2064 57.8624 14.6372 57.8624 17.6449C57.8624 20.6526 60.2933 23.0835 63.301 23.0835C66.3087 23.0835 68.7395 20.6526 68.7395 17.6449C68.7395 15.0905 66.9473 12.8862 64.4546 12.33C64.0632 12.2476 63.6924 12.2064 63.301 12.2064Z" fill="#0A121A"/>
<path d="M63.3016 21.0642C65.2016 21.0642 66.7419 19.5239 66.7419 17.6239C66.7419 15.7239 65.2016 14.1836 63.3016 14.1836C61.4016 14.1836 59.8613 15.7239 59.8613 17.6239C59.8613 19.5239 61.4016 21.0642 63.3016 21.0642Z" fill="#0A121A"/>
<path d="M63.3238 21.2089C61.3461 21.2089 59.7393 19.6021 59.7393 17.645C59.7393 15.6674 61.3461 14.0605 63.3031 14.0605C65.2808 14.0605 66.8876 15.6674 66.8876 17.6244C66.8876 18.8399 66.2696 19.9729 65.2396 20.6321C64.6834 21.0029 64.0036 21.1883 63.3238 21.2089ZM63.3031 14.3284C62.6645 14.3284 62.0465 14.5138 61.5315 14.864C60.0071 15.8528 59.5539 17.8922 60.5427 19.4167C61.5315 20.9411 63.571 21.3943 65.0954 20.4055C66.6198 19.4167 67.073 17.3772 66.0842 15.8528C65.4662 14.9052 64.4362 14.3284 63.3031 14.3284Z" fill="#0A121A"/>
<path d="M65.6092 16.2852C65.5474 16.2852 65.5062 16.2646 65.4856 16.2028C65.4444 16.1204 64.3731 14.2664 62.1483 15.2964C62.0865 15.3376 61.9835 15.2964 61.9629 15.2346C61.9217 15.1728 61.9629 15.0698 62.0247 15.0492C64.4967 13.9162 65.7122 16.0586 65.7328 16.0792C65.774 16.141 65.7534 16.244 65.671 16.2646C65.6504 16.2646 65.6298 16.2646 65.6092 16.2852Z" fill="white"/>
<path d="M66.0002 17.4798C65.9178 17.4798 65.856 17.3974 65.856 17.315C65.856 17.1296 65.8354 16.9441 65.753 16.7793C65.7118 16.7175 65.7324 16.6145 65.8148 16.5733C65.8766 16.5321 65.9796 16.5527 66.0208 16.6351V16.6557C66.1238 16.8617 66.165 17.0884 66.1444 17.3356C66.1238 17.418 66.062 17.4798 66.0002 17.4798Z" fill="white"/>
<path d="M45.2975 23.372C45.2563 23.372 45.2357 23.3514 45.2151 23.3514C45.1533 23.3102 45.1327 23.2072 45.1945 23.1454C47.2546 20.6733 49.4589 18.3248 51.7867 16.1206C51.8485 16.0588 51.9309 16.0588 51.9927 16.1206C52.0545 16.1824 52.0545 16.2648 51.9927 16.3266C49.6649 18.5308 47.4812 20.8587 45.4211 23.3308C45.3799 23.3308 45.3387 23.3514 45.2975 23.372Z" fill="white"/>
<path d="M51.7648 27.3271C47.7477 29.9227 42.577 32.4566 42.1238 31.7768C41.6706 31.097 46.1203 27.4095 50.1374 24.8138C54.1545 22.2181 56.6677 22.383 56.6677 22.383C56.6677 22.383 55.7819 24.7314 51.7648 27.3271Z" fill="#EACAFF"/>
<path d="M42.4532 32.0035C42.2884 32.0241 42.1236 31.9623 42 31.8387C41.897 31.6945 41.6086 31.2207 44.3691 28.8722C46.1819 27.3478 48.0772 25.9469 50.0754 24.6697C54.0925 22.074 56.5852 22.2182 56.6882 22.2182C56.7294 22.2182 56.7706 22.2388 56.7912 22.28C56.8118 22.3212 56.8118 22.3624 56.8118 22.4036C56.7706 22.5066 55.8642 24.8345 51.8471 27.4302C49.1896 29.1606 44.0601 32.0241 42.4532 32.0035ZM56.4616 22.5272C55.7818 22.5478 53.4951 22.8157 50.2402 24.9375C48.2626 26.2147 46.3673 27.6156 44.5751 29.1194C42.5562 30.8499 42.1854 31.5709 42.2678 31.6945C42.5974 32.1889 47.2325 30.1082 51.7235 27.2036C54.9783 25.1023 56.1526 23.1247 56.4616 22.5272Z" fill="#0A121A"/>
<path d="M26.9425 25.4938L26.2214 24.7522L25.1914 24.8964L25.7064 23.99L25.2326 23.063L26.2626 23.269L27.0043 22.5273L27.1279 23.5574L28.0343 24.0312L27.1073 24.4844L26.9425 25.4938Z" fill="#F0D304"/>
<path d="M36.3779 26.4213L35.9247 25.9475L35.3066 26.0505L35.6156 25.4943L35.3272 24.9175L35.9453 25.0411L36.3985 24.5879L36.4809 25.2265L37.0577 25.5149L36.4809 25.7827L36.3779 26.4213Z" fill="#F0D304"/>
<path d="M32.0918 44.2405L30.588 43.3547L29.0018 44.0963L29.3726 42.3865L28.1777 41.1093L29.9288 40.9239L30.7734 39.3994L31.4738 41.0063L33.1837 41.3359L31.8858 42.4895L32.0918 44.2405Z" fill="#F0D304"/>
<path d="M21.5651 33.4865L20.6174 32.477L19.2578 32.683L19.917 31.4882L19.299 30.2522L20.6586 30.52L21.6269 29.5518L21.8123 30.9114L23.0277 31.55L21.7711 32.1268L21.5651 33.4865Z" fill="#F0D304"/>
</svg>
