<svg width="80" height="68" viewBox="0 0 80 68" fill="none" xmlns="http://www.w3.org/2000/svg">
<path d="M9.95898 44.0352V45.9098L32.7844 66.9842L79.8566 50.8539V49.0205L9.95898 44.0352Z" fill="#0A121A"/>
<path d="M32.7841 67.127C32.7429 67.127 32.7223 67.1064 32.6811 67.0858L9.85565 46.0114C9.83505 45.9908 9.81445 45.9496 9.81445 45.9084V44.0544C9.81445 44.0132 9.83505 43.972 9.85565 43.9514C9.87625 43.9308 9.91746 43.9102 9.95866 43.9102L79.8563 48.8955C79.9387 48.8955 80.0005 48.9573 79.9799 49.0397V50.8731C79.9799 50.9349 79.9387 50.9967 79.8769 51.0173L32.8253 67.127C32.8253 67.127 32.8047 67.127 32.7841 67.127ZM10.0823 45.8466L32.8253 66.818L79.7121 50.7701V49.1427L10.1029 44.1986V45.8466H10.0823Z" fill="#0A121A"/>
<path d="M9.95927 44.0343L0.132812 10.3524L48.5441 0.402344L55.4453 30.0465L9.95927 44.0343Z" fill="white"/>
<path d="M9.95859 44.1783C9.93799 44.1783 9.91739 44.1783 9.89679 44.1577C9.85559 44.1371 9.83499 44.1165 9.83499 44.0753L0.00853309 10.3934C-0.0120675 10.3522 0.00853277 10.311 0.0291333 10.2698C0.0497339 10.2286 0.0909349 10.208 0.132136 10.208L48.5434 0.257947C48.6258 0.237347 48.6876 0.299148 48.7082 0.36095L55.6094 30.0051C55.63 30.0875 55.5888 30.1493 55.5064 30.1699L9.99979 44.1577L9.95859 44.1783ZM0.317541 10.4552L10.041 43.8487L55.2798 29.9433L48.4404 0.566955L0.317541 10.4552Z" fill="#0A121A"/>
<path d="M55.445 30.0469L9.95898 44.0346L32.8256 64.5734L79.8566 49.02L55.445 30.0469Z" fill="white"/>
<path d="M32.8255 64.718C32.7843 64.718 32.7637 64.6974 32.7225 64.6768L9.85592 44.138C9.81472 44.0968 9.79412 44.0556 9.81472 43.9938C9.83532 43.9526 9.85592 43.9114 9.91773 43.8908L55.4037 29.9031C55.4449 29.8825 55.5067 29.9031 55.5273 29.9237L79.939 48.8968C79.9802 48.938 80.0008 48.9792 80.0008 49.041C79.9802 49.1028 79.9596 49.144 79.8978 49.144L32.8667 64.6974C32.8461 64.718 32.8461 64.718 32.8255 64.718ZM10.2267 44.0968L32.8461 64.409L79.5476 48.9586L55.4243 30.1915L10.2267 44.0968Z" fill="#0A121A"/>
<path d="M54.7016 32.6836L15.334 45.5177L25.7991 54.7262L66.2997 41.274L54.7016 32.6836Z" fill="white"/>
<path d="M25.801 54.8697C25.7598 54.8697 25.7392 54.8491 25.698 54.8285L15.2329 45.6201C15.1711 45.5583 15.1711 45.4759 15.2123 45.414C15.2329 45.3934 15.2535 45.3729 15.2741 45.3729L54.6417 32.5593C54.6829 32.5387 54.7241 32.5593 54.7653 32.5799L66.384 41.1703C66.4252 41.2115 66.4458 41.2527 66.4458 41.3145C66.4458 41.3763 66.4046 41.4175 66.3428 41.4175L25.8422 54.8697C25.8422 54.8491 25.8216 54.8491 25.801 54.8697ZM15.6243 45.5583L25.8422 54.5401L65.9926 41.2115L54.6623 32.8477L15.6243 45.5583Z" fill="#D1D3D4"/>
<path d="M57.4424 46.4023L42.2598 51.0993L49.1197 56.4554L64.0757 51.4289L57.4424 46.4023Z" fill="white"/>
<path d="M49.1205 56.6009C49.0793 56.6009 49.0587 56.5803 49.0381 56.5803L42.1575 51.2241C42.1163 51.1829 42.0957 51.1417 42.0957 51.0799C42.0957 51.0181 42.1369 50.9769 42.1987 50.9769L57.4019 46.28C57.4431 46.2594 57.4843 46.28 57.5255 46.3006L64.1383 51.3271C64.1795 51.3684 64.2001 51.4095 64.2001 51.4713C64.2001 51.5332 64.1589 51.5744 64.0971 51.5744L49.1617 56.6009C49.1617 56.6009 49.1411 56.6009 49.1205 56.6009ZM42.5695 51.1623L49.1617 56.3125L63.7675 51.3889L57.4225 46.5684L42.5695 51.1623Z" fill="#D1D3D4"/>
<path d="M11.3577 41.273L2.62305 12.185L46.8112 2.75L53.1562 29.0157L11.3577 41.273Z" fill="white"/>
<path d="M11.3581 41.417C11.2963 41.417 11.2345 41.3758 11.2139 41.314L2.47924 12.2261C2.45864 12.1849 2.47924 12.1437 2.49984 12.1025C2.52044 12.0613 2.56164 12.0406 2.60284 12.0406L46.791 2.6056C46.8734 2.585 46.9352 2.6468 46.9558 2.70861L53.3008 28.9743C53.3214 29.0567 53.2802 29.1185 53.1978 29.1391L11.3993 41.3964C11.3787 41.417 11.3787 41.417 11.3581 41.417ZM2.80884 12.2879L11.4611 41.0874L52.9918 28.9125L46.7086 2.91461L2.80884 12.2879Z" fill="#0A121A"/>
<path d="M3.48795 15.2336C3.40555 15.2336 3.34375 15.1718 3.34375 15.0894C3.34375 15.0276 3.38495 14.9658 3.44675 14.9452L47.4289 5.30419C47.5113 5.28359 47.5937 5.32479 47.6143 5.38659C47.6349 5.46899 47.5937 5.55139 47.5319 5.57199H47.5113L3.52916 15.2336H3.48795Z" fill="#0A121A"/>
<path d="M5.54947 13.6478C5.86804 13.6478 6.12629 13.3895 6.12629 13.071C6.12629 12.7524 5.86804 12.4941 5.54947 12.4941C5.23091 12.4941 4.97266 12.7524 4.97266 13.071C4.97266 13.3895 5.23091 13.6478 5.54947 13.6478Z" fill="#EACAFF"/>
<path d="M7.62955 13.1126C7.94812 13.1126 8.20636 12.8544 8.20636 12.5358C8.20636 12.2172 7.94812 11.959 7.62955 11.959C7.31098 11.959 7.05273 12.2172 7.05273 12.5358C7.05273 12.8544 7.31098 13.1126 7.62955 13.1126Z" fill="#D1D3D4"/>
<path d="M9.6276 12.6575C9.94616 12.6575 10.2044 12.3993 10.2044 12.0807C10.2044 11.7622 9.94616 11.5039 9.6276 11.5039C9.30903 11.5039 9.05078 11.7622 9.05078 12.0807C9.05078 12.3993 9.30903 12.6575 9.6276 12.6575Z" fill="#D1D3D4"/>
<path d="M13.9552 17.1914L40.9007 10.8671C41.4981 10.7229 42.0749 11.0937 42.2192 11.6911L42.4252 12.5563C42.5694 13.1537 42.1986 13.7305 41.6011 13.8747L14.6556 20.1991C14.0582 20.3433 13.4814 19.9725 13.3372 19.3751L13.1312 18.5099C13.0076 17.933 13.3784 17.3356 13.9552 17.1914Z" fill="#D1D3D4"/>
<path d="M46.1529 26.0699C46.1529 26.0699 33.7926 30.9317 22.1327 28.0476C10.4727 25.1635 3.50977 15.0898 3.50977 15.0898L9.75173 35.917C9.75173 35.917 14.1808 38.6569 25.1197 38.5127C39.0869 38.3479 48.5013 31.3849 48.5013 31.3849L45.3083 25.9257" fill="white"/>
<path d="M24.3997 38.679C14.0583 38.679 9.73215 36.0833 9.69094 36.0421C9.67034 36.0215 9.62914 36.0009 9.62914 35.9597L3.36658 15.1326C3.34598 15.0502 3.38718 14.9678 3.46958 14.9472C3.53138 14.9266 3.59318 14.9472 3.63439 15.009C3.69619 15.112 10.7004 25.062 22.1749 27.9049C32.0013 30.3358 42.4252 27.2045 45.3299 26.2157L45.2063 26.0097C45.1651 25.9479 45.1857 25.8449 45.2475 25.8037C45.3093 25.7625 45.4123 25.7831 45.4535 25.8449L45.5977 26.0921C45.9273 25.9685 46.0921 25.9067 46.1127 25.9067C46.1951 25.8861 46.2775 25.9067 46.2981 25.9891C46.3187 26.0715 46.2981 26.1539 46.2157 26.1745C46.1951 26.1745 46.0303 26.2363 45.7419 26.3393L48.626 31.304C48.6672 31.3658 48.6466 31.4482 48.5848 31.4894C48.4818 31.5512 38.9643 38.473 25.1207 38.6378L24.3997 38.679ZM9.87635 35.8361C10.3708 36.1245 14.9235 38.5142 25.1207 38.3906C38.0991 38.2464 47.2457 32.128 48.317 31.3658L45.4535 26.4835C42.59 27.4723 32.0425 30.6448 22.0925 28.1933C12.2248 25.7625 5.65324 18.1197 3.88159 15.833L9.87635 35.8361Z" fill="#0A121A"/>
<path d="M28.6639 33.4666C24.2141 33.4666 19.1052 32.725 14.4495 30.2736C14.3877 30.2324 14.3465 30.15 14.3877 30.0882C14.4289 30.0264 14.5113 29.9851 14.5937 30.0264C25.8828 36.0005 40.0148 31.6744 40.159 31.6332C40.2414 31.6126 40.3238 31.6538 40.3444 31.7362C40.365 31.8186 40.3238 31.901 40.2414 31.9216C36.4715 32.931 32.578 33.4666 28.6639 33.4666Z" fill="#D1D3D4"/>
<path d="M26.1721 36.2052C16.8813 36.2052 10.8247 31.8997 10.7423 31.8585C10.6805 31.8173 10.6599 31.7143 10.7011 31.6525C10.7423 31.5907 10.8453 31.5701 10.9071 31.6113C10.9895 31.6731 19.3533 37.5854 31.4665 35.443C31.5489 35.4224 31.6107 35.4842 31.6313 35.546C31.6519 35.6284 31.5901 35.6902 31.5077 35.7108C29.7566 36.0404 27.9644 36.2052 26.1721 36.2052Z" fill="#D1D3D4"/>
<path d="M16.9629 29.0382C16.9423 29.0382 16.9217 29.0382 16.9011 29.0176C7.81631 24.8975 5.61205 19.8298 5.57085 19.768C5.52965 19.6856 5.57085 19.6032 5.65325 19.5826C5.73566 19.5414 5.81806 19.5826 5.83866 19.665C5.83866 19.6856 6.37427 20.9216 8.02232 22.6727C9.52615 24.2795 12.3278 26.6486 17.0041 28.7704C17.0866 28.8116 17.1072 28.894 17.0866 28.9558C17.066 28.997 17.0247 29.0382 16.9629 29.0382Z" fill="#D1D3D4"/>
<path d="M33.195 30.6655C33.1126 30.6655 33.0508 30.6037 33.0508 30.5213C33.0508 30.4389 33.1126 30.3771 33.195 30.3771C33.2362 30.3771 38.2421 30.3565 40.5288 29.2646C40.6112 29.2234 40.6936 29.2646 40.7142 29.3264C40.7348 29.3882 40.7142 29.4912 40.6524 29.5118C38.3245 30.6655 33.401 30.6655 33.195 30.6655Z" fill="#D1D3D4"/>
<path d="M43.0625 26.8329L46.9148 32.807L50.2727 31.674L45.4728 24.2578L43.0625 26.8329Z" fill="white"/>
<path d="M46.9154 32.9509C46.8742 32.9509 46.8124 32.9303 46.7918 32.8891L42.9189 26.915C42.8777 26.8532 42.8983 26.7914 42.9395 26.7295L45.3498 24.1545C45.3704 24.1133 45.4322 24.1133 45.4734 24.1133C45.5146 24.1133 45.5558 24.1339 45.5764 24.1751L50.3557 31.5913C50.3969 31.6531 50.3763 31.7561 50.2939 31.7973H50.2733L46.936 32.9303C46.9566 32.9509 46.936 32.9509 46.9154 32.9509ZM43.2485 26.8532L46.9772 32.6419L50.0261 31.6119L45.4322 24.5047L43.2485 26.8532Z" fill="#0A121A"/>
<path d="M61.1717 28.873C61.1717 28.873 61.2335 33.2816 58.679 36.4746C56.1246 39.6677 48.1934 41.254 48.1934 41.254L50.686 31.5511L61.1717 28.873Z" fill="#EACAFF"/>
<path d="M48.193 41.4193C48.1518 41.4193 48.1106 41.3987 48.09 41.3781C48.0488 41.3369 48.0488 41.2957 48.0488 41.2339L50.5415 31.5311C50.5621 31.4899 50.6033 31.4487 50.6445 31.4281L61.1302 28.75C61.1714 28.75 61.2126 28.75 61.2538 28.7706C61.295 28.7912 61.3156 28.8324 61.3156 28.8942C61.3156 28.9354 61.3568 33.3851 58.7817 36.5782C56.2066 39.7713 48.5432 41.3575 48.2136 41.4193H48.193ZM50.8093 31.6959L48.3784 41.0897C49.6969 40.8013 56.289 39.2151 58.5551 36.3928C60.7594 33.6323 61.0066 29.9242 61.0272 29.0796L50.8093 31.6959Z" fill="#0A121A"/>
<path d="M52.4176 15.3177C52.4176 15.3177 48.4417 13.4431 44.4658 14.4731C40.4899 15.5032 35.793 22.0541 35.793 22.0541L45.6606 23.764L52.4176 15.3177Z" fill="#EACAFF"/>
<path d="M45.6583 23.9076H45.6377L35.7701 22.1978C35.6877 22.1772 35.6465 22.1154 35.6465 22.033C35.6465 22.0124 35.6671 21.9918 35.6671 21.9712C35.8525 21.7034 40.4464 15.3584 44.4223 14.3284C48.3982 13.2984 52.4359 15.173 52.4771 15.1936C52.5183 15.2142 52.5389 15.2554 52.5595 15.2966C52.5801 15.3378 52.5595 15.379 52.5389 15.4202L45.7614 23.8664C45.7408 23.9076 45.6995 23.9282 45.6583 23.9076ZM36.0379 21.9506L45.5965 23.5986L52.1887 15.379C51.3853 15.0494 47.9244 13.731 44.5047 14.6168C41.0026 15.5026 36.8413 20.8588 36.0379 21.9506Z" fill="#0A121A"/>
<path d="M43.4766 23.5372C46.1958 19.5613 50.9752 15.091 56.9905 11.2181C66.1166 5.32636 74.1096 7.30401 76.8082 8.25163C77.4057 8.45764 77.7971 9.05506 77.7353 9.69367C77.4881 12.5571 75.9842 20.6532 66.8788 26.5449C60.8634 30.4384 54.8275 32.9311 50.0893 33.7757C50.0893 33.7757 48.2971 32.7251 45.9898 29.1612C43.6826 25.5973 43.4766 23.5372 43.4766 23.5372Z" fill="#EACAFF"/>
<path d="M50.0881 33.9406C50.0675 33.9406 50.0469 33.9406 50.0057 33.92C49.9233 33.8788 48.1723 32.8075 45.865 29.2642C43.5578 25.721 43.3311 23.6609 43.3105 23.5785C43.3105 23.5373 43.3105 23.5167 43.3311 23.4755C46.1534 19.3554 51.0975 14.8439 56.8863 11.1152C65.9505 5.26462 73.8611 7.07746 76.8276 8.14869C77.4868 8.3753 77.9194 9.03452 77.8576 9.75554C77.5898 12.9074 76.0036 20.8592 66.9394 26.7098C61.1506 30.4385 55.0117 33.0959 50.0881 33.9818V33.9406ZM43.6196 23.5785C43.6814 23.9081 44.0522 25.9064 46.1122 29.0994C48.1723 32.2925 49.8203 33.4668 50.1087 33.6522C54.9911 32.7663 61.0682 30.1501 66.7952 26.442C75.7564 20.6532 77.322 12.8044 77.5898 9.71433C77.631 9.13752 77.3014 8.60191 76.7452 8.4165C73.7993 7.38647 66.0123 5.57363 57.0511 11.3624C51.3448 15.0499 46.4418 19.4996 43.6196 23.5785Z" fill="#0A121A"/>
<path d="M77.7341 9.71452C77.3839 13.2578 76.1272 16.6569 74.1084 19.6028L66.3008 7.48966C69.8029 6.85105 73.4286 7.11885 76.8071 8.25188C77.4045 8.47849 77.7959 9.07591 77.7341 9.71452Z" fill="white"/>
<path d="M74.1294 19.7468C74.0882 19.7468 74.0264 19.7262 74.0058 19.685L66.1776 7.57192C66.157 7.53072 66.157 7.48952 66.1776 7.42772C66.1982 7.38652 66.2394 7.34532 66.2806 7.34532C71.1835 6.50069 75.0152 7.46892 76.8692 8.12814C77.5285 8.35474 77.9611 9.01396 77.8993 9.73498C77.7345 11.692 77.034 15.5855 74.253 19.7056C74.2118 19.7262 74.1706 19.7468 74.1294 19.7468ZM66.5484 7.59252L74.1294 19.3348C76.7868 15.3383 77.4461 11.589 77.6109 9.69378C77.6521 9.11696 77.3225 8.58135 76.7662 8.39594C74.974 7.75733 71.2865 6.8097 66.5484 7.59252Z" fill="#0A121A"/>
<path d="M63.2321 23.1868C66.304 23.1868 68.7942 20.6965 68.7942 17.6246C68.7942 14.5528 66.304 12.0625 63.2321 12.0625C60.1602 12.0625 57.6699 14.5528 57.6699 17.6246C57.6699 20.6965 60.1602 23.1868 63.2321 23.1868Z" fill="white"/>
<path d="M63.2513 23.3307C60.0994 23.3307 57.5449 20.7762 57.5449 17.6243C57.5449 14.4724 60.0994 11.918 63.2513 11.918C66.4032 11.918 68.9576 14.4724 68.9576 17.6243C68.9576 19.5608 67.9688 21.3736 66.3413 22.4242C65.4143 23.0011 64.3431 23.3307 63.2513 23.3307ZM63.2307 12.2064C60.223 12.2064 57.7921 14.6372 57.7921 17.6449C57.7921 20.6526 60.223 23.0835 63.2307 23.0835C66.2383 23.0835 68.6692 20.6526 68.6692 17.6449C68.6692 15.0905 66.877 12.8862 64.3843 12.33C63.9929 12.2476 63.6221 12.2064 63.2307 12.2064Z" fill="#0A121A"/>
<path d="M63.2313 21.0661C65.1313 21.0661 66.6716 19.5259 66.6716 17.6258C66.6716 15.7258 65.1313 14.1855 63.2313 14.1855C61.3313 14.1855 59.791 15.7258 59.791 17.6258C59.791 19.5259 61.3313 21.0661 63.2313 21.0661Z" fill="#0A121A"/>
<path d="M63.2525 21.2109C61.2748 21.2109 59.668 19.604 59.668 17.647C59.668 15.6693 61.2748 14.0625 63.2319 14.0625C65.2095 14.0625 66.8164 15.6693 66.8164 17.6264C66.8164 18.8418 66.1983 19.9749 65.1683 20.6341C64.6121 21.0049 63.9323 21.1903 63.2525 21.2109ZM63.2319 14.3303C62.5932 14.3303 61.9752 14.5157 61.4602 14.8659C59.9358 15.8547 59.4826 17.8942 60.4714 19.4186C61.4602 20.9431 63.4997 21.3963 65.0241 20.4075C66.5485 19.4186 67.0018 17.3792 66.0129 15.8547C65.3949 14.9071 64.3649 14.3303 63.2319 14.3303Z" fill="#0A121A"/>
<path d="M65.5398 16.2852C65.478 16.2852 65.4368 16.2646 65.4162 16.2028C65.375 16.1204 64.3038 14.2664 62.0789 15.2964C62.0171 15.3376 61.9141 15.2964 61.8935 15.2346C61.8523 15.1728 61.8935 15.0698 61.9553 15.0492C64.4274 13.9162 65.6428 16.0586 65.6634 16.0792C65.7046 16.141 65.684 16.244 65.6016 16.2646C65.581 16.2646 65.5604 16.2646 65.5398 16.2852Z" fill="white"/>
<path d="M65.9299 17.4817C65.8475 17.4817 65.7857 17.3993 65.7857 17.3169C65.7857 17.1315 65.7651 16.9461 65.6827 16.7813C65.6415 16.7195 65.6621 16.6165 65.7445 16.5753C65.8063 16.5341 65.9093 16.5547 65.9505 16.6371V16.6577C66.0535 16.8637 66.0947 17.0903 66.0741 17.3375C66.0535 17.4199 65.9917 17.4817 65.9299 17.4817Z" fill="white"/>
<path d="M45.2282 23.372C45.187 23.372 45.1664 23.3514 45.1458 23.3514C45.084 23.3102 45.0634 23.2072 45.1252 23.1454C47.1853 20.6733 49.3895 18.3248 51.7174 16.1206C51.7792 16.0588 51.8616 16.0588 51.9234 16.1206C51.9852 16.1824 51.9852 16.2648 51.9234 16.3266C49.5955 18.5308 47.4119 20.8587 45.3518 23.3308C45.3106 23.3308 45.2694 23.3514 45.2282 23.372Z" fill="white"/>
<path d="M51.6945 27.3271C47.6774 29.9227 42.5067 32.4566 42.0535 31.7768C41.6002 31.097 46.05 27.4095 50.0671 24.8138C54.0842 22.2181 56.5974 22.383 56.5974 22.383C56.5974 22.383 55.7116 24.7314 51.6945 27.3271Z" fill="#EACAFF"/>
<path d="M42.3839 32.0054C42.2191 32.026 42.0543 31.9642 41.9307 31.8406C41.8277 31.6964 41.5393 31.2226 44.2997 28.8742C46.1126 27.3497 48.0078 25.9489 50.0061 24.6717C54.0232 22.076 56.5159 22.2202 56.6189 22.2202C56.6601 22.2202 56.7013 22.2408 56.7219 22.282C56.7425 22.3232 56.7425 22.3644 56.7425 22.4056C56.7013 22.5086 55.7948 24.8365 51.7777 27.4321C49.1203 29.1626 43.9907 32.026 42.3839 32.0054ZM56.3923 22.5292C55.7124 22.5498 53.4258 22.8176 50.1709 24.9395C48.1932 26.2167 46.298 27.6175 44.5057 29.1214C42.4869 30.8518 42.1161 31.5728 42.1985 31.6964C42.5281 32.1909 47.1632 30.1102 51.6541 27.2055C54.909 25.1043 56.0832 23.1266 56.3923 22.5292Z" fill="#0A121A"/>
<path d="M26.8721 25.4938L26.1511 24.7522L25.1211 24.8964L25.6361 23.99L25.1623 23.063L26.1923 23.269L26.9339 22.5273L27.0575 23.5574L27.964 24.0312L27.0369 24.4844L26.8721 25.4938Z" fill="#F0D304"/>
<path d="M36.3076 26.4213L35.8543 25.9475L35.2363 26.0505L35.5453 25.4943L35.2569 24.9175L35.8749 25.0411L36.3282 24.5879L36.4106 25.2265L36.9874 25.5149L36.4106 25.7827L36.3076 26.4213Z" fill="#F0D304"/>
<path d="M32.0215 44.2396L30.5177 43.3537L28.9314 44.0954L29.3023 42.3855L28.1074 41.1083L29.8585 40.9229L30.7031 39.3984L31.4035 41.0053L33.1134 41.3349L31.8155 42.4885L32.0215 44.2396Z" fill="#F0D304"/>
<path d="M21.4948 33.4855L20.5471 32.4761L19.1875 32.6821L19.8467 31.4872L19.2287 30.2512L20.5883 30.519L21.5566 29.5508L21.742 30.9104L22.9574 31.549L21.7008 32.1258L21.4948 33.4855Z" fill="#F0D304"/>
</svg>
