<svg width="35" height="35" viewBox="0 0 35 35" fill="none" xmlns="http://www.w3.org/2000/svg">
<path d="M17.5 0.4375C14.1254 0.4375 10.8265 1.4382 8.02059 3.31305C5.21468 5.1879 3.02773 7.8527 1.73631 10.9705C0.444893 14.0882 0.106999 17.5189 0.765359 20.8287C1.42372 24.1385 3.04876 27.1788 5.435 29.565C7.82123 31.9512 10.8615 33.5763 14.1713 34.2346C17.4811 34.893 20.9118 34.5551 24.0295 33.2637C27.1473 31.9723 29.8121 29.7853 31.687 26.9794C33.5618 24.1735 34.5625 20.8746 34.5625 17.5C34.5577 12.9762 32.7585 8.63907 29.5597 5.44027C26.3609 2.24146 22.0238 0.442277 17.5 0.4375ZM24.9911 14.4911L15.8036 23.6786C15.6817 23.8006 15.537 23.8974 15.3776 23.9635C15.2183 24.0295 15.0475 24.0635 14.875 24.0635C14.7025 24.0635 14.5317 24.0295 14.3724 23.9635C14.2131 23.8974 14.0683 23.8006 13.9464 23.6786L10.0089 19.7411C9.76264 19.4948 9.62428 19.1608 9.62428 18.8125C9.62428 18.4642 9.76264 18.1302 10.0089 17.8839C10.2552 17.6376 10.5892 17.4993 10.9375 17.4993C11.2858 17.4993 11.6198 17.6376 11.8661 17.8839L14.875 20.8945L23.1339 12.6339C23.2559 12.512 23.4006 12.4152 23.56 12.3492C23.7193 12.2832 23.8901 12.2493 24.0625 12.2493C24.235 12.2493 24.4057 12.2832 24.5651 12.3492C24.7244 12.4152 24.8692 12.512 24.9911 12.6339C25.113 12.7559 25.2098 12.9006 25.2758 13.0599C25.3418 13.2193 25.3757 13.39 25.3757 13.5625C25.3757 13.735 25.3418 13.9057 25.2758 14.0651C25.2098 14.2244 25.113 14.3692 24.9911 14.4911Z" fill="#29DD67"/>
</svg>
