<svg width="58" height="59" viewBox="0 0 58 59" fill="none" xmlns="http://www.w3.org/2000/svg">
<g filter="url(#filter0_d_32_4189)">
<circle cx="29.1182" cy="27" r="20" fill="#E8A6FF"/>
</g>
<path d="M21.3408 36.4444L25.7853 25.8888L32.4519 25.3333L37.4519 36.4444H21.3408Z" fill="white"/>
<path d="M23.0068 21.4444L25.2291 24.7777L32.4513 25.3333L34.6735 22.5555V20.3333L32.4513 17.2777L30.7846 19.2222H28.0068L26.3402 18.111L25.2291 17.2777L23.0068 21.4444Z" fill="white"/>
<path d="M38.1493 35.5104C38.1461 35.5014 38.1423 35.4927 38.1378 35.4843L33.4003 25.3948L35.5357 22.0427C35.5399 22.0367 35.5438 22.0304 35.5472 22.0239C35.7025 21.7649 35.7846 21.4686 35.7846 21.1666C35.7846 20.8646 35.7025 20.5683 35.5472 20.3093C35.5378 20.2927 35.5264 20.276 35.516 20.2604L33.2847 17.0729V14.5C33.2847 14.2789 33.1969 14.067 33.0406 13.9107C32.8843 13.7544 32.6724 13.6666 32.4514 13.6666C32.2304 13.6666 32.0184 13.7544 31.8621 13.9107C31.7058 14.067 31.618 14.2789 31.618 14.5V17.0437L31.0701 17.7291C30.8359 18.0219 30.5388 18.2582 30.2009 18.4206C29.863 18.583 29.4929 18.6673 29.118 18.6673C28.7431 18.6673 28.373 18.583 28.0351 18.4206C27.6972 18.2582 27.4002 18.0219 27.166 17.7291L26.618 17.0437V14.5C26.618 14.2789 26.5302 14.067 26.374 13.9107C26.2177 13.7544 26.0057 13.6666 25.7847 13.6666C25.5637 13.6666 25.3517 13.7544 25.1954 13.9107C25.0392 14.067 24.9514 14.2789 24.9514 14.5V17.0729L22.7201 20.2604C22.7097 20.276 22.6982 20.2927 22.6889 20.3093C22.5335 20.5683 22.4515 20.8646 22.4515 21.1666C22.4515 21.4686 22.5335 21.7649 22.6889 22.0239C22.6923 22.0304 22.6961 22.0367 22.7003 22.0427L24.8357 25.3948L20.0982 35.4843C20.0938 35.4927 20.09 35.5014 20.0868 35.5104C19.9782 35.7638 19.9342 36.0402 19.9588 36.3148C19.9833 36.5895 20.0755 36.8537 20.2273 37.0839C20.379 37.3141 20.5855 37.5031 20.8282 37.6339C21.0709 37.7646 21.3423 37.8332 21.618 37.8333H36.618C36.8938 37.8333 37.1653 37.7649 37.4082 37.6342C37.6511 37.5035 37.8577 37.3146 38.0095 37.0843C38.1614 36.8541 38.2538 36.5898 38.2783 36.3151C38.3029 36.0404 38.2589 35.7639 38.1503 35.5104H38.1493ZM24.118 21.1666L25.8295 18.726L25.8639 18.7698C26.2542 19.2579 26.7494 19.652 27.3127 19.9228C27.876 20.1936 28.493 20.3342 29.118 20.3342C29.7431 20.3342 30.3601 20.1936 30.9234 19.9228C31.4867 19.652 31.9819 19.2579 32.3722 18.7698L32.4066 18.726L34.118 21.1666L31.9951 24.5H26.242L24.118 21.1666ZM21.618 36.1666L26.3128 26.1666H31.9212L36.618 36.1666H21.618Z" fill="#1A2022"/>
<defs>
<filter id="filter0_d_32_4189" x="0.229276" y="0.333334" width="57.7778" height="57.7778" filterUnits="userSpaceOnUse" color-interpolation-filters="sRGB">
<feFlood flood-opacity="0" result="BackgroundImageFix"/>
<feColorMatrix in="SourceAlpha" type="matrix" values="0 0 0 0 0 0 0 0 0 0 0 0 0 0 0 0 0 0 127 0" result="hardAlpha"/>
<feOffset dy="2.22222"/>
<feGaussianBlur stdDeviation="4.44444"/>
<feComposite in2="hardAlpha" operator="out"/>
<feColorMatrix type="matrix" values="0 0 0 0 0 0 0 0 0 0 0 0 0 0 0 0 0 0 0.15 0"/>
<feBlend mode="normal" in2="BackgroundImageFix" result="effect1_dropShadow_32_4189"/>
<feBlend mode="normal" in="SourceGraphic" in2="effect1_dropShadow_32_4189" result="shape"/>
</filter>
</defs>
</svg>
