<svg width="24" height="24" viewBox="0 0 24 24" fill="none" xmlns="http://www.w3.org/2000/svg">
<circle cx="12" cy="12" r="12" fill="#AACDFC"/>
<path d="M7.69141 16.5769V7.28093C7.69141 7.19734 7.71087 7.11489 7.74825 7.04012L7.81181 6.91301C7.90302 6.73059 8.08947 6.61536 8.29342 6.61536H12.8068C13.1042 6.61536 13.3453 6.85643 13.3453 7.15382V9.30766C13.3453 9.60505 13.5863 9.84613 13.8837 9.84613H15.7683C16.0657 9.84613 16.3068 10.0872 16.3068 10.3846V16.5769C16.3068 16.8743 16.0657 17.1154 15.7683 17.1154H8.22987C7.93248 17.1154 7.69141 16.8743 7.69141 16.5769Z" fill="white"/>
<path d="M16.6845 9.50297L13.622 6.44047C13.5814 6.39985 13.5331 6.36765 13.48 6.34569C13.4269 6.32373 13.37 6.31245 13.3125 6.3125H8.0625C7.83044 6.3125 7.60788 6.40469 7.44378 6.56878C7.27969 6.73288 7.1875 6.95544 7.1875 7.1875V16.8125C7.1875 17.0446 7.27969 17.2671 7.44378 17.4312C7.60788 17.5953 7.83044 17.6875 8.0625 17.6875H15.9375C16.1696 17.6875 16.3921 17.5953 16.5562 17.4312C16.7203 17.2671 16.8125 17.0446 16.8125 16.8125V9.8125C16.8125 9.75503 16.8013 9.69811 16.7793 9.645C16.7574 9.59189 16.7251 9.54363 16.6845 9.50297ZM13.75 7.80602L15.319 9.375H13.75V7.80602ZM15.9375 16.8125H8.0625V7.1875H12.875V9.8125C12.875 9.92853 12.9211 10.0398 13.0031 10.1219C13.0852 10.2039 13.1965 10.25 13.3125 10.25H15.9375V16.8125ZM14.1875 12.4375C14.1875 12.5535 14.1414 12.6648 14.0594 12.7469C13.9773 12.8289 13.866 12.875 13.75 12.875H10.25C10.134 12.875 10.0227 12.8289 9.94064 12.7469C9.85859 12.6648 9.8125 12.5535 9.8125 12.4375C9.8125 12.3215 9.85859 12.2102 9.94064 12.1281C10.0227 12.0461 10.134 12 10.25 12H13.75C13.866 12 13.9773 12.0461 14.0594 12.1281C14.1414 12.2102 14.1875 12.3215 14.1875 12.4375ZM14.1875 14.1875C14.1875 14.3035 14.1414 14.4148 14.0594 14.4969C13.9773 14.5789 13.866 14.625 13.75 14.625H10.25C10.134 14.625 10.0227 14.5789 9.94064 14.4969C9.85859 14.4148 9.8125 14.3035 9.8125 14.1875C9.8125 14.0715 9.85859 13.9602 9.94064 13.8781C10.0227 13.7961 10.134 13.75 10.25 13.75H13.75C13.866 13.75 13.9773 13.7961 14.0594 13.8781C14.1414 13.9602 14.1875 14.0715 14.1875 14.1875Z" fill="#0A121A"/>
</svg>
