<svg width="40" height="40" viewBox="0 0 40 40" fill="none" xmlns="http://www.w3.org/2000/svg">
<circle cx="20" cy="20" r="20" fill="#FFA2BD"/>
<path d="M10.625 25.4687V12.5781L12.5781 11.7969H28.5938L29.375 13.3594V24.6875L28.5938 26.25H12.1875L10.625 25.4687Z" fill="white"/>
<path d="M27.8125 11.4062H12.1875C11.5659 11.4062 10.9698 11.6532 10.5302 12.0927C10.0907 12.5323 9.84375 13.1284 9.84375 13.75V24.6875C9.84375 25.3091 10.0907 25.9052 10.5302 26.3448C10.9698 26.7843 11.5659 27.0312 12.1875 27.0312H19.2188V28.5938H16.875C16.6678 28.5938 16.4691 28.6761 16.3226 28.8226C16.1761 28.9691 16.0938 29.1678 16.0938 29.375C16.0938 29.5822 16.1761 29.7809 16.3226 29.9274C16.4691 30.0739 16.6678 30.1562 16.875 30.1562H23.125C23.3322 30.1562 23.5309 30.0739 23.6774 29.9274C23.8239 29.7809 23.9062 29.5822 23.9062 29.375C23.9062 29.1678 23.8239 28.9691 23.6774 28.8226C23.5309 28.6761 23.3322 28.5938 23.125 28.5938H20.7812V27.0312H27.8125C28.4341 27.0312 29.0302 26.7843 29.4698 26.3448C29.9093 25.9052 30.1562 25.3091 30.1562 24.6875V13.75C30.1562 13.1284 29.9093 12.5323 29.4698 12.0927C29.0302 11.6532 28.4341 11.4062 27.8125 11.4062ZM12.1875 12.9688H27.8125C28.0197 12.9688 28.2184 13.0511 28.3649 13.1976C28.5114 13.3441 28.5938 13.5428 28.5938 13.75V21.5625H11.4062V13.75C11.4062 13.5428 11.4886 13.3441 11.6351 13.1976C11.7816 13.0511 11.9803 12.9688 12.1875 12.9688ZM27.8125 25.4688H12.1875C11.9803 25.4688 11.7816 25.3864 11.6351 25.2399C11.4886 25.0934 11.4062 24.8947 11.4062 24.6875V23.125H28.5938V24.6875C28.5938 24.8947 28.5114 25.0934 28.3649 25.2399C28.2184 25.3864 28.0197 25.4688 27.8125 25.4688Z" fill="black"/>
</svg>
