<svg width="40" height="40" viewBox="0 0 40 40" fill="none" xmlns="http://www.w3.org/2000/svg">
<circle cx="20" cy="20" r="20" fill="#343839"/>
<path d="M10.625 28.75V11.25H30.625V25L29.375 25.625H24.375V25V21.875H16.875V28.125V29.375H13.75H11.25L10.625 28.75Z" fill="#343839"/>
<path d="M30.5078 10.3906H10.7422C10.5039 10.3906 10.2754 10.4853 10.1069 10.6538C9.93841 10.8223 9.84375 11.0508 9.84375 11.2891V28.3594C9.84375 28.8359 10.0331 29.293 10.37 29.63C10.707 29.9669 11.1641 30.1562 11.6406 30.1562H16.1328C16.6094 30.1562 17.0664 29.9669 17.4034 29.63C17.7404 29.293 17.9297 28.8359 17.9297 28.3594V22.9688H23.3203V24.7656C23.3203 25.2422 23.5096 25.6992 23.8466 26.0362C24.1836 26.3732 24.6406 26.5625 25.1172 26.5625H29.6094C30.0859 26.5625 30.543 26.3732 30.88 26.0362C31.2169 25.6992 31.4062 25.2422 31.4062 24.7656V11.2891C31.4062 11.0508 31.3116 10.8223 31.1431 10.6538C30.9746 10.4853 30.7461 10.3906 30.5078 10.3906ZM16.1328 28.3594H11.6406V19.375H16.1328V28.3594ZM16.1328 17.5781H11.6406V12.1875H16.1328V17.5781ZM23.3203 21.1719H17.9297V12.1875H23.3203V21.1719ZM29.6094 24.7656H25.1172V19.375H29.6094V24.7656ZM29.6094 17.5781H25.1172V12.1875H29.6094V17.5781Z" fill="white"/>
</svg>
