<svg width="40" height="40" viewBox="0 0 40 40" fill="none" xmlns="http://www.w3.org/2000/svg">
<circle cx="20" cy="20" r="20" fill="#9BC5FF"/>
<path d="M16.875 15L10.625 21.25V22.5L11.875 23.125L13.75 22.5L16.25 20L13.75 30L14.375 30.625L15.625 31.25L20 24.375L24.375 31.25L25.625 30.625L26.25 30L23.125 20H23.75L28.125 23.75L29.375 23.125V21.875L23.75 15H16.875Z" fill="white"/>
<ellipse cx="20" cy="10.625" rx="2.5" ry="1.875" fill="white"/>
<path d="M23.4374 10.5469C23.4374 9.867 23.2358 9.2024 22.858 8.6371C22.4803 8.07181 21.9435 7.63122 21.3153 7.37104C20.6872 7.11086 19.9961 7.04279 19.3292 7.17543C18.6624 7.30806 18.0499 7.63545 17.5692 8.1162C17.0884 8.59694 16.7611 9.20944 16.6284 9.87625C16.4958 10.5431 16.5639 11.2342 16.824 11.8624C17.0842 12.4905 17.5248 13.0273 18.0901 13.4051C18.6554 13.7828 19.32 13.9844 19.9999 13.9844C20.9115 13.9844 21.7859 13.6222 22.4305 12.9776C23.0752 12.3329 23.4374 11.4586 23.4374 10.5469ZM19.9999 12.2656C19.6599 12.2656 19.3276 12.1648 19.045 11.976C18.7623 11.7871 18.542 11.5187 18.412 11.2046C18.2819 10.8906 18.2478 10.545 18.3141 10.2116C18.3805 9.87816 18.5442 9.57191 18.7845 9.33154C19.0249 9.09117 19.3312 8.92747 19.6646 8.86115C19.998 8.79483 20.3435 8.82887 20.6576 8.95896C20.9717 9.08905 21.2401 9.30934 21.429 9.59199C21.6178 9.87464 21.7186 10.2069 21.7186 10.5469C21.7186 11.0027 21.5375 11.4399 21.2152 11.7622C20.8929 12.0845 20.4557 12.2656 19.9999 12.2656ZM29.7044 20.6499L24.8521 15.1478C24.5295 14.7821 24.1328 14.4892 23.6883 14.2886C23.2437 14.088 22.7617 13.9843 22.274 13.9844H17.7257C17.2381 13.9843 16.756 14.088 16.3115 14.2886C15.867 14.4892 15.4702 14.7821 15.1476 15.1478L10.2954 20.6499C9.90133 21.0529 9.68144 21.5946 9.68311 22.1583C9.68479 22.7219 9.9079 23.2623 10.3043 23.663C10.7008 24.0637 11.2388 24.2925 11.8024 24.3001C12.366 24.3078 12.91 24.0937 13.3172 23.7039L15.0681 22.2988L13.2914 29.0535C13.056 29.5728 13.0366 30.1642 13.2374 30.6978C13.4381 31.2313 13.8426 31.6633 14.3618 31.8986C14.8811 32.1339 15.4725 32.1533 16.0061 31.9526C16.5396 31.7518 16.9716 31.3474 17.2069 30.8281L19.9999 26.0081L22.7928 30.8281C23.0387 31.3299 23.4704 31.7162 23.9963 31.905C24.5222 32.0938 25.101 32.0703 25.6099 31.8394C26.1187 31.6085 26.5176 31.1885 26.7219 30.6683C26.9262 30.1482 26.9198 29.569 26.7041 29.0535L24.9316 22.2988L26.6826 23.7039C27.0898 24.0937 27.6338 24.3078 28.1974 24.3001C28.761 24.2925 29.299 24.0637 29.6954 23.663C30.0918 23.2623 30.3149 22.7219 30.3166 22.1583C30.3183 21.5946 30.0984 21.0529 29.7044 20.6499ZM28.4679 22.4514C28.428 22.4913 28.3806 22.523 28.3285 22.5446C28.2763 22.5663 28.2204 22.5774 28.1639 22.5774C28.1075 22.5774 28.0515 22.5663 27.9994 22.5446C27.9472 22.523 27.8998 22.4913 27.8599 22.4514C27.8374 22.4299 27.8148 22.4084 27.7901 22.3891L23.9745 19.3297C23.8337 19.2173 23.6611 19.152 23.4811 19.143C23.3012 19.1341 23.1229 19.1819 22.9716 19.2797C22.8203 19.3776 22.7036 19.5205 22.638 19.6883C22.5724 19.8561 22.5612 20.0403 22.6059 20.2148L25.0637 29.5606C25.0764 29.6104 25.0936 29.6589 25.1153 29.7056C25.1401 29.7568 25.1545 29.8125 25.1575 29.8694C25.1606 29.9262 25.1524 29.9831 25.1333 30.0368C25.1142 30.0904 25.0846 30.1398 25.0463 30.1819C25.008 30.224 24.9617 30.2581 24.9101 30.2821C24.8584 30.3062 24.8026 30.3198 24.7457 30.322C24.6888 30.3243 24.632 30.3153 24.5786 30.2954C24.5252 30.2755 24.4764 30.2453 24.4348 30.2063C24.3932 30.1674 24.3598 30.1206 24.3365 30.0687C24.326 30.0454 24.3141 30.0229 24.301 30.001L20.7432 23.8672C20.6677 23.737 20.5593 23.6289 20.4288 23.5537C20.2983 23.4786 20.1504 23.439 19.9999 23.439C19.8493 23.439 19.7014 23.4786 19.5709 23.5537C19.4405 23.6289 19.3321 23.737 19.2565 23.8672L15.703 29.9956C15.6899 30.0175 15.6781 30.0401 15.6675 30.0633C15.6437 30.1145 15.61 30.1605 15.5683 30.1986C15.5266 30.2368 15.4779 30.2664 15.4248 30.2857C15.3449 30.3149 15.2581 30.3198 15.1754 30.2997C15.0927 30.2796 15.0178 30.2354 14.9603 30.1727C14.9027 30.11 14.8651 30.0316 14.8522 29.9475C14.8393 29.8634 14.8516 29.7773 14.8877 29.7002C14.9093 29.6536 14.9266 29.605 14.9392 29.5552L17.3938 20.2148C17.4386 20.0403 17.4274 19.8561 17.3617 19.6883C17.2961 19.5205 17.1794 19.3776 17.0281 19.2797C16.8768 19.1819 16.6986 19.1341 16.5186 19.143C16.3387 19.152 16.1661 19.2173 16.0253 19.3297L12.2096 22.3891C12.1849 22.4084 12.1624 22.4299 12.1398 22.4514C12.1003 22.493 12.0529 22.5263 12.0004 22.5493C11.9479 22.5723 11.8913 22.5846 11.8339 22.5853C11.7766 22.5861 11.7196 22.5754 11.6665 22.5539C11.6134 22.5323 11.5651 22.5003 11.5245 22.4598C11.4839 22.4193 11.4518 22.371 11.4302 22.3179C11.4085 22.2648 11.3977 22.2079 11.3984 22.1506C11.3991 22.0932 11.4112 22.0366 11.4341 21.984C11.4571 21.9314 11.4903 21.884 11.5318 21.8444C11.5447 21.8315 11.5565 21.8187 11.5683 21.8047L16.4367 16.2843C16.598 16.1015 16.7964 15.9552 17.0187 15.855C17.2409 15.7548 17.482 15.703 17.7257 15.7031H22.274C22.5178 15.703 22.7588 15.7548 22.9811 15.855C23.2033 15.9552 23.4017 16.1015 23.5631 16.2843L28.4314 21.8047C28.4432 21.8187 28.455 21.8315 28.4679 21.8444C28.5483 21.925 28.5934 22.0341 28.5934 22.1479C28.5934 22.2617 28.5483 22.3708 28.4679 22.4514Z" fill="#343839"/>
</svg>
