<svg width="25" height="24" viewBox="0 0 25 24" fill="none" xmlns="http://www.w3.org/2000/svg">
<circle cx="12.75" cy="12" r="12" fill="#AACDFC"/>
<path d="M7.125 15.2812V7.54688L8.29688 7.07812H17.9062L18.375 8.01562V14.8125L17.9062 15.75H8.0625L7.125 15.2812Z" fill="white"/>
<path d="M17.4375 6.84375H8.0625C7.68954 6.84375 7.33185 6.99191 7.06813 7.25563C6.80441 7.51935 6.65625 7.87704 6.65625 8.25V14.8125C6.65625 15.1855 6.80441 15.5431 7.06813 15.8069C7.33185 16.0706 7.68954 16.2188 8.0625 16.2188H12.2812V17.1562H10.875C10.7507 17.1562 10.6315 17.2056 10.5435 17.2935C10.4556 17.3815 10.4062 17.5007 10.4062 17.625C10.4062 17.7493 10.4556 17.8685 10.5435 17.9565C10.6315 18.0444 10.7507 18.0938 10.875 18.0938H14.625C14.7493 18.0938 14.8685 18.0444 14.9565 17.9565C15.0444 17.8685 15.0938 17.7493 15.0938 17.625C15.0938 17.5007 15.0444 17.3815 14.9565 17.2935C14.8685 17.2056 14.7493 17.1562 14.625 17.1562H13.2188V16.2188H17.4375C17.8105 16.2188 18.1681 16.0706 18.4319 15.8069C18.6956 15.5431 18.8438 15.1855 18.8438 14.8125V8.25C18.8438 7.87704 18.6956 7.51935 18.4319 7.25563C18.1681 6.99191 17.8105 6.84375 17.4375 6.84375ZM8.0625 7.78125H17.4375C17.5618 7.78125 17.681 7.83064 17.769 7.91854C17.8569 8.00645 17.9062 8.12568 17.9062 8.25V12.9375H7.59375V8.25C7.59375 8.12568 7.64314 8.00645 7.73104 7.91854C7.81895 7.83064 7.93818 7.78125 8.0625 7.78125ZM17.4375 15.2812H8.0625C7.93818 15.2812 7.81895 15.2319 7.73104 15.144C7.64314 15.056 7.59375 14.9368 7.59375 14.8125V13.875H17.9062V14.8125C17.9062 14.9368 17.8569 15.056 17.769 15.144C17.681 15.2319 17.5618 15.2812 17.4375 15.2812Z" fill="#343839"/>
</svg>
