<svg width="25" height="24" viewBox="0 0 25 24" fill="none" xmlns="http://www.w3.org/2000/svg">
<circle cx="12.75" cy="12" r="12" fill="#AACDFC"/>
<path d="M18.0195 15.1442L16.1445 17.0192C16.0566 17.1071 15.9373 17.1565 15.8129 17.1565C15.6885 17.1565 15.5692 17.1071 15.4812 17.0192C15.3933 16.9312 15.3439 16.8119 15.3439 16.6875C15.3439 16.5631 15.3933 16.4438 15.4812 16.3559L16.5564 15.2813H8.31287C8.18855 15.2813 8.06932 15.2319 7.98141 15.144C7.8935 15.0561 7.84412 14.9368 7.84412 14.8125C7.84412 14.6882 7.8935 14.569 7.98141 14.4811C8.06932 14.3932 8.18855 14.3438 8.31287 14.3438H16.5564L15.4812 13.2692C15.3933 13.1812 15.3439 13.0619 15.3439 12.9375C15.3439 12.8131 15.3933 12.6938 15.4812 12.6059C15.5692 12.5179 15.6885 12.4685 15.8129 12.4685C15.9373 12.4685 16.0566 12.5179 16.1445 12.6059L18.0195 14.4809C18.0631 14.5244 18.0977 14.5761 18.1213 14.633C18.1448 14.6899 18.157 14.7509 18.157 14.8125C18.157 14.8741 18.1448 14.9351 18.1213 14.992C18.0977 15.0489 18.0631 15.1006 18.0195 15.1442ZM9.85623 11.3942C9.94418 11.4821 10.0635 11.5315 10.1879 11.5315C10.3123 11.5315 10.4316 11.4821 10.5195 11.3942C10.6075 11.3062 10.6569 11.1869 10.6569 11.0625C10.6569 10.9381 10.6075 10.8188 10.5195 10.7309L9.44431 9.65627H17.6879C17.8122 9.65627 17.9314 9.60688 18.0193 9.51897C18.1072 9.43107 18.1566 9.31184 18.1566 9.18752C18.1566 9.0632 18.1072 8.94397 18.0193 8.85606C17.9314 8.76815 17.8122 8.71877 17.6879 8.71877H9.44431L10.5195 7.64416C10.6075 7.5562 10.6569 7.43691 10.6569 7.31252C10.6569 7.18813 10.6075 7.06883 10.5195 6.98088C10.4316 6.89292 10.3123 6.84351 10.1879 6.84351C10.0635 6.84351 9.94418 6.89292 9.85623 6.98088L7.98123 8.85588C7.93765 8.89941 7.90307 8.95111 7.87948 9.00801C7.85589 9.06492 7.84375 9.12592 7.84375 9.18752C7.84375 9.24912 7.85589 9.31011 7.87948 9.36702C7.90307 9.42393 7.93765 9.47562 7.98123 9.51916L9.85623 11.3942Z" fill="#343839"/>
</svg>
