<svg width="24" height="24" viewBox="0 0 24 24" fill="none" xmlns="http://www.w3.org/2000/svg">
<circle cx="12" cy="12" r="12" fill="#AACDFC"/>
<path d="M5.75 7.5L5.5 16L6 16.5H18.25L18.75 7.75L5.75 7.5Z" fill="white"/>
<path d="M18 7H6C5.73478 7 5.48043 7.10536 5.29289 7.29289C5.10536 7.48043 5 7.73478 5 8V16C5 16.2652 5.10536 16.5196 5.29289 16.7071C5.48043 16.8946 5.73478 17 6 17H18C18.2652 17 18.5196 16.8946 18.7071 16.7071C18.8946 16.5196 19 16.2652 19 16V8C19 7.73478 18.8946 7.48043 18.7071 7.29289C18.5196 7.10536 18.2652 7 18 7ZM18 8V9.5H6V8H18ZM18 16H6V10.5H18V16ZM17 14.5C17 14.6326 16.9473 14.7598 16.8536 14.8536C16.7598 14.9473 16.6326 15 16.5 15H14.5C14.3674 15 14.2402 14.9473 14.1464 14.8536C14.0527 14.7598 14 14.6326 14 14.5C14 14.3674 14.0527 14.2402 14.1464 14.1464C14.2402 14.0527 14.3674 14 14.5 14H16.5C16.6326 14 16.7598 14.0527 16.8536 14.1464C16.9473 14.2402 17 14.3674 17 14.5ZM13 14.5C13 14.6326 12.9473 14.7598 12.8536 14.8536C12.7598 14.9473 12.6326 15 12.5 15H11.5C11.3674 15 11.2402 14.9473 11.1464 14.8536C11.0527 14.7598 11 14.6326 11 14.5C11 14.3674 11.0527 14.2402 11.1464 14.1464C11.2402 14.0527 11.3674 14 11.5 14H12.5C12.6326 14 12.7598 14.0527 12.8536 14.1464C12.9473 14.2402 13 14.3674 13 14.5Z" fill="#343839"/>
</svg>
