<svg width="18" height="19" viewBox="0 0 18 19" fill="none" xmlns="http://www.w3.org/2000/svg">
<path d="M18 11.5V17.5C18 17.6989 17.921 17.8897 17.7803 18.0303C17.6397 18.171 17.4489 18.25 17.25 18.25H0.75C0.551088 18.25 0.360322 18.171 0.21967 18.0303C0.0790178 17.8897 0 17.6989 0 17.5V11.5C0 11.3011 0.0790178 11.1103 0.21967 10.9696C0.360322 10.829 0.551088 10.75 0.75 10.75C0.948912 10.75 1.13968 10.829 1.28033 10.9696C1.42098 11.1103 1.5 11.3011 1.5 11.5V16.75H16.5V11.5C16.5 11.3011 16.579 11.1103 16.7197 10.9696C16.8603 10.829 17.0511 10.75 17.25 10.75C17.4489 10.75 17.6397 10.829 17.7803 10.9696C17.921 11.1103 18 11.3011 18 11.5ZM5.78063 5.28061L8.25 2.81029V11.5C8.25 11.6989 8.32902 11.8897 8.46967 12.0303C8.61032 12.171 8.80109 12.25 9 12.25C9.19891 12.25 9.38968 12.171 9.53033 12.0303C9.67098 11.8897 9.75 11.6989 9.75 11.5V2.81029L12.2194 5.28061C12.3601 5.42134 12.551 5.5004 12.75 5.5004C12.949 5.5004 13.1399 5.42134 13.2806 5.28061C13.4214 5.13987 13.5004 4.949 13.5004 4.74998C13.5004 4.55096 13.4214 4.36009 13.2806 4.21935L9.53063 0.469355C9.46097 0.399622 9.37825 0.344303 9.2872 0.30656C9.19616 0.268816 9.09856 0.24939 9 0.24939C8.90144 0.24939 8.80384 0.268816 8.7128 0.30656C8.62175 0.344303 8.53903 0.399622 8.46937 0.469355L4.71937 4.21935C4.57864 4.36009 4.49958 4.55096 4.49958 4.74998C4.49958 4.949 4.57864 5.13987 4.71937 5.28061C4.86011 5.42134 5.05098 5.5004 5.25 5.5004C5.44902 5.5004 5.63989 5.42134 5.78063 5.28061Z" fill="#2481FF"/>
</svg>
