<svg width="30" height="30" viewBox="0 0 30 30" fill="none" xmlns="http://www.w3.org/2000/svg">
<circle cx="15" cy="15" r="15" fill="#E8A6FF"/>
<path d="M19.6875 12.6562C19.6875 13.5833 19.4126 14.4896 18.8975 15.2605C18.3824 16.0313 17.6504 16.6321 16.7938 16.9869C15.9373 17.3417 14.9948 17.4345 14.0855 17.2537C13.1762 17.0728 12.341 16.6264 11.6854 15.9708C11.0299 15.3153 10.5834 14.48 10.4026 13.5707C10.2217 12.6614 10.3145 11.719 10.6693 10.8624C11.0241 10.0059 11.6249 9.27381 12.3958 8.75874C13.1666 8.24367 14.0729 7.96875 15 7.96875C16.2432 7.96875 17.4355 8.46261 18.3146 9.34169C19.1936 10.2208 19.6875 11.413 19.6875 12.6562Z" fill="white"/>
<path d="M22.5376 21.1524C21.4221 19.2239 19.7032 17.8411 17.697 17.1856C18.6894 16.5949 19.4603 15.6947 19.8915 14.6234C20.3228 13.5521 20.3904 12.3689 20.0841 11.2554C19.7777 10.142 19.1143 9.15985 18.1958 8.4599C17.2773 7.75994 16.1544 7.38086 14.9995 7.38086C13.8447 7.38086 12.7218 7.75994 11.8033 8.4599C10.8847 9.15985 10.2214 10.142 9.91502 11.2554C9.60868 12.3689 9.67632 13.5521 10.1075 14.6234C10.5388 15.6947 11.3097 16.5949 12.302 17.1856C10.2959 17.8404 8.57693 19.2232 7.46145 21.1524C7.42055 21.2191 7.39341 21.2933 7.38165 21.3707C7.3699 21.448 7.37375 21.5269 7.39299 21.6028C7.41223 21.6786 7.44646 21.7498 7.49367 21.8122C7.54088 21.8746 7.60011 21.927 7.66787 21.9661C7.73562 22.0052 7.81053 22.0304 7.88817 22.0401C7.96581 22.0498 8.04461 22.0439 8.11992 22.0227C8.19523 22.0014 8.26552 21.9653 8.32665 21.9165C8.38779 21.8677 8.43852 21.8071 8.47586 21.7383C9.85574 19.3536 12.2947 17.9297 14.9995 17.9297C17.7044 17.9297 20.1433 19.3536 21.5232 21.7383C21.5606 21.8071 21.6113 21.8677 21.6724 21.9165C21.7336 21.9653 21.8039 22.0014 21.8792 22.0227C21.9545 22.0439 22.0333 22.0498 22.1109 22.0401C22.1885 22.0304 22.2635 22.0052 22.3312 21.9661C22.399 21.927 22.4582 21.8746 22.5054 21.8122C22.5526 21.7498 22.5868 21.6786 22.6061 21.6028C22.6253 21.5269 22.6292 21.448 22.6174 21.3707C22.6057 21.2933 22.5785 21.2191 22.5376 21.1524ZM10.898 12.6563C10.898 11.8451 11.1385 11.0521 11.5892 10.3776C12.0399 9.70309 12.6805 9.17738 13.4299 8.86694C14.1794 8.5565 15.0041 8.47528 15.7997 8.63354C16.5953 8.7918 17.3262 9.18243 17.8998 9.75605C18.4734 10.3297 18.864 11.0605 19.0223 11.8561C19.1805 12.6517 19.0993 13.4764 18.7889 14.2259C18.4785 14.9754 17.9527 15.6159 17.2782 16.0666C16.6037 16.5173 15.8108 16.7579 14.9995 16.7579C13.9121 16.7567 12.8695 16.3242 12.1006 15.5552C11.3316 14.7863 10.8991 13.7437 10.898 12.6563Z" fill="black"/>
</svg>
