<svg width="32" height="20" viewBox="0 0 32 20" fill="none" xmlns="http://www.w3.org/2000/svg">
<path d="M13.7562 14.9988H11.252L12.8183 5.07227H15.3225L13.7562 14.9988Z" fill="#00579F"/>
<path d="M22.8808 5.27402C22.3838 5.07229 21.5954 4.84961 20.6205 4.84961C18.1319 4.84961 16.3794 6.20686 16.3686 8.14734C16.3479 9.579 17.6233 10.3741 18.5773 10.8515C19.5522 11.3393 19.8836 11.6576 19.8836 12.0924C19.8738 12.7602 19.0958 13.0681 18.3703 13.0681C17.3641 13.0681 16.8251 12.9094 16.0057 12.5378L15.6739 12.3786L15.3213 14.6161C15.9123 14.8915 17.0013 15.1359 18.1319 15.1466C20.7761 15.1466 22.4976 13.8104 22.518 11.7426C22.5281 10.6078 21.8546 9.73834 20.4027 9.02791C19.5212 8.57189 18.9815 8.26428 18.9815 7.79759C18.9918 7.37344 19.438 6.93889 20.433 6.93889C21.2522 6.91769 21.8542 7.11903 22.3102 7.32064L22.5382 7.42638L22.8808 5.27402Z" fill="#00579F"/>
<path d="M26.2584 11.4823C26.4653 10.912 27.2613 8.70487 27.2613 8.70487C27.2509 8.72607 27.4677 8.12402 27.5917 7.75451L27.7673 8.60979C27.7673 8.60979 28.243 10.986 28.3463 11.4823C27.9536 11.4823 26.7546 11.4823 26.2584 11.4823ZM29.3591 5.07227H27.4161C26.817 5.07227 26.3618 5.25162 26.1032 5.89594L22.3721 14.9988H25.0077C25.0077 14.9988 25.4416 13.7736 25.5349 13.5097C25.8241 13.5097 28.3881 13.5097 28.7601 13.5097C28.8322 13.8583 29.0597 14.9988 29.0597 14.9988H31.3855L29.3591 5.07227Z" fill="#00579F"/>
<path d="M9.10142 5.07227L6.63859 11.8484L6.36947 10.4742C5.91414 8.88844 4.48615 7.1655 2.89258 6.3089L5.14844 14.9988H7.80776L11.7606 5.07227H9.10142Z" fill="#00579F"/>
<path d="M4.36326 5.07227H0.31679L0.275391 5.27045C3.43189 6.08464 5.52237 8.04711 6.38126 10.4059L5.5016 5.89699C5.35678 5.27032 4.91172 5.09294 4.36326 5.07227Z" fill="#FAA61A"/>
</svg>
